<svg xmlns="http://www.w3.org/2000/svg" xmlns:xlink="http://www.w3.org/1999/xlink" width="2227" zoomAndPan="magnify" viewBox="0 0 1670.25 809.999993" height="1080" preserveAspectRatio="xMidYMid meet" version="1.0"><defs><g/><clipPath id="b3ddd6bef2"><rect x="0" width="638" y="0" height="170"/></clipPath><clipPath id="801b695a9c"><path d="M 0.398438 42 L 92 42 L 92 124 L 0.398438 124 Z M 0.398438 42 " clip-rule="nonzero"/></clipPath><clipPath id="368149c182"><rect x="0" width="774" y="0" height="170"/></clipPath></defs><g transform="matrix(1, 0, 0, 1, 183, 366)"><g clip-path="url(#b3ddd6bef2)"><g fill="#ffffff" fill-opacity="1"><g transform="translate(0.62639, 123.728016)"><g><path d="M 44.546875 1.625 C 32.242188 1.625 22.613281 -1.503906 15.65625 -7.765625 C 8.695312 -14.035156 5.21875 -22.851562 5.21875 -34.21875 L 5.21875 -81.203125 L 38.390625 -81.203125 L 38.390625 -35.609375 C 38.390625 -30.585938 40.441406 -28.078125 44.546875 -28.078125 C 48.722656 -28.078125 50.8125 -30.585938 50.8125 -35.609375 L 50.8125 -81.203125 L 83.984375 -81.203125 L 83.984375 -34.21875 C 83.984375 -22.851562 80.503906 -14.035156 73.546875 -7.765625 C 66.585938 -1.503906 56.921875 1.625 44.546875 1.625 Z M 44.546875 1.625 "/></g></g></g><g fill="#ffffff" fill-opacity="1"><g transform="translate(89.82285, 123.728016)"><g><path d="M 5.6875 0 L 5.6875 -81.203125 L 32.484375 -81.203125 L 53.359375 -51.859375 L 54.40625 -51.96875 L 53.828125 -62.875 L 53.828125 -81.203125 L 85.84375 -81.203125 L 85.84375 0 L 59.15625 0 L 38.15625 -29.46875 L 37.234375 -29.34375 L 37.703125 -18.328125 L 37.703125 0 Z M 5.6875 0 "/></g></g></g><g fill="#ffffff" fill-opacity="1"><g transform="translate(181.348697, 123.728016)"><g/></g></g><g fill="#ffffff" fill-opacity="1"><g transform="translate(205.938634, 123.728016)"><g/></g></g><g fill="#ffffff" fill-opacity="1"><g transform="translate(230.528571, 123.728016)"><g/></g></g><g fill="#ffffff" fill-opacity="1"><g transform="translate(255.118507, 123.728016)"><g/></g></g><g fill="#ffffff" fill-opacity="1"><g transform="translate(279.708444, 123.728016)"><g/></g></g><g fill="#ffffff" fill-opacity="1"><g transform="translate(304.29838, 123.728016)"><g/></g></g><g fill="#ffffff" fill-opacity="1"><g transform="translate(328.888317, 123.728016)"><g/></g></g><g fill="#ffffff" fill-opacity="1"><g transform="translate(353.478254, 123.728016)"><g/></g></g><g fill="#ffffff" fill-opacity="1"><g transform="translate(378.06819, 123.728016)"><g/></g></g><g fill="#ffffff" fill-opacity="1"><g transform="translate(402.658127, 123.728016)"><g/></g></g><g fill="#ffffff" fill-opacity="1"><g transform="translate(427.248064, 123.728016)"><g/></g></g><g fill="#ffffff" fill-opacity="1"><g transform="translate(451.838, 123.728016)"><g/></g></g><g fill="#ffffff" fill-opacity="1"><g transform="translate(476.427937, 123.728016)"><g/></g></g><g fill="#ffffff" fill-opacity="1"><g transform="translate(501.017874, 123.728016)"><g/></g></g><g fill="#ffffff" fill-opacity="1"><g transform="translate(525.640698, 123.728016)"><g><path d="M 5.6875 0 L 5.6875 -81.203125 L 49.640625 -81.203125 C 56.835938 -81.203125 63.003906 -79.960938 68.140625 -77.484375 C 73.285156 -75.015625 77.25 -71.515625 80.03125 -66.984375 C 82.820312 -62.460938 84.21875 -57.03125 84.21875 -50.6875 C 84.21875 -45.664062 83.328125 -41.179688 81.546875 -37.234375 C 79.765625 -33.285156 77.175781 -29.960938 73.78125 -27.265625 L 85.953125 0 L 50.6875 0 L 43.03125 -20.1875 L 38.28125 -20.1875 L 38.28125 0 Z M 37.8125 -42.6875 L 43.390625 -42.6875 C 45.859375 -42.6875 47.785156 -43.304688 49.171875 -44.546875 C 50.566406 -45.785156 51.265625 -47.601562 51.265625 -50 C 51.265625 -52.46875 50.566406 -54.28125 49.171875 -55.4375 C 47.785156 -56.601562 45.859375 -57.1875 43.390625 -57.1875 L 37.8125 -57.1875 Z M 37.8125 -42.6875 "/></g></g></g><g fill="#ffffff" fill-opacity="1"><g transform="translate(613.003128, 123.728016)"><g/></g></g></g></g><g transform="matrix(1, 0, 0, 1, 714, 459)"><g clip-path="url(#368149c182)"><g clip-path="url(#801b695a9c)"><g fill="#ffffff" fill-opacity="1"><g transform="translate(0.5104, 123.392877)"><g><path d="M 27.609375 0 L 0.109375 -81.203125 L 35.140625 -81.203125 L 40.828125 -57.765625 L 45.015625 -38.96875 L 46.046875 -38.96875 L 50.234375 -57.765625 L 55.90625 -81.203125 L 90.9375 -81.203125 L 63.5625 0 Z M 27.609375 0 "/></g></g></g></g><g fill="#ffffff" fill-opacity="1"><g transform="translate(91.678666, 123.392877)"><g><path d="M 5.6875 0 L 5.6875 -81.203125 L 67.515625 -81.203125 L 67.515625 -58.8125 L 37.359375 -58.8125 L 37.359375 -51.5 L 64.734375 -51.5 L 64.734375 -30.28125 L 37.359375 -30.28125 L 37.359375 -22.734375 L 68.4375 -22.734375 L 68.4375 0 Z M 5.6875 0 "/></g></g></g><g fill="#ffffff" fill-opacity="1"><g transform="translate(163.940531, 123.392877)"><g><path d="M 5.6875 0 L 5.6875 -81.203125 L 38.859375 -81.203125 L 38.859375 -29.8125 L 67.28125 -29.8125 L 67.28125 0 Z M 5.6875 0 "/></g></g></g><g fill="#ffffff" fill-opacity="1"><g transform="translate(232.026691, 123.392877)"><g><path d="M 47.90625 1.625 C 38.78125 1.625 30.773438 -0.171875 23.890625 -3.765625 C 17.015625 -7.359375 11.679688 -12.328125 7.890625 -18.671875 C 4.097656 -25.015625 2.203125 -32.320312 2.203125 -40.59375 C 2.203125 -48.875 4.097656 -56.179688 7.890625 -62.515625 C 11.679688 -68.859375 17.015625 -73.828125 23.890625 -77.421875 C 30.773438 -81.023438 38.78125 -82.828125 47.90625 -82.828125 C 57.113281 -82.828125 65.140625 -81.023438 71.984375 -77.421875 C 78.828125 -73.828125 84.140625 -68.859375 87.921875 -62.515625 C 91.710938 -56.179688 93.609375 -48.875 93.609375 -40.59375 C 93.609375 -32.320312 91.710938 -25.015625 87.921875 -18.671875 C 84.140625 -12.328125 78.828125 -7.359375 71.984375 -3.765625 C 65.140625 -0.171875 57.113281 1.625 47.90625 1.625 Z M 35.265625 -40.59375 C 35.265625 -36.8125 36.441406 -33.738281 38.796875 -31.375 C 41.160156 -29.019531 44.195312 -27.84375 47.90625 -27.84375 C 51.613281 -27.84375 54.644531 -29.019531 57 -31.375 C 59.363281 -33.738281 60.546875 -36.8125 60.546875 -40.59375 C 60.546875 -44.382812 59.363281 -47.457031 57 -49.8125 C 54.644531 -52.175781 51.613281 -53.359375 47.90625 -53.359375 C 44.195312 -53.359375 41.160156 -52.175781 38.796875 -49.8125 C 36.441406 -47.457031 35.265625 -44.382812 35.265625 -40.59375 Z M 35.265625 -40.59375 "/></g></g></g><g fill="#ffffff" fill-opacity="1"><g transform="translate(327.834566, 123.392877)"><g><path d="M 5.6875 0 L 5.6875 -81.203125 L 47.796875 -81.203125 C 55.066406 -81.203125 61.347656 -79.882812 66.640625 -77.25 C 71.941406 -74.625 76.039062 -70.929688 78.9375 -66.171875 C 81.832031 -61.421875 83.28125 -55.796875 83.28125 -49.296875 C 83.28125 -42.804688 81.832031 -37.179688 78.9375 -32.421875 C 76.039062 -27.660156 71.960938 -23.96875 66.703125 -21.34375 C 61.441406 -18.71875 55.253906 -17.40625 48.140625 -17.40625 L 38.859375 -17.40625 L 38.859375 0 Z M 37.9375 -41.53125 L 42.21875 -41.53125 C 47.789062 -41.53125 50.578125 -43.96875 50.578125 -48.84375 C 50.578125 -53.632812 47.789062 -56.03125 42.21875 -56.03125 L 37.9375 -56.03125 Z M 37.9375 -41.53125 "/></g></g></g><g fill="#ffffff" fill-opacity="1"><g transform="translate(413.087328, 123.392877)"><g><path d="M 5.6875 0 L 5.6875 -81.203125 L 32.484375 -81.203125 L 55.5625 -51.96875 L 78.53125 -81.203125 L 105.328125 -81.203125 L 105.328125 0 L 73.421875 0 L 73.421875 -16.125 L 74.125 -29.8125 L 73.078125 -30.046875 L 63.21875 -16.125 L 47.90625 -16.125 L 37.9375 -30.046875 L 37 -29.921875 L 37.578125 -16.125 L 37.578125 0 Z M 5.6875 0 "/></g></g></g><g fill="#ffffff" fill-opacity="1"><g transform="translate(524.08992, 123.392877)"><g><path d="M 5.6875 0 L 5.6875 -81.203125 L 67.515625 -81.203125 L 67.515625 -58.8125 L 37.359375 -58.8125 L 37.359375 -51.5 L 64.734375 -51.5 L 64.734375 -30.28125 L 37.359375 -30.28125 L 37.359375 -22.734375 L 68.4375 -22.734375 L 68.4375 0 Z M 5.6875 0 "/></g></g></g><g fill="#ffffff" fill-opacity="1"><g transform="translate(596.351785, 123.392877)"><g><path d="M 5.6875 0 L 5.6875 -81.203125 L 32.484375 -81.203125 L 53.359375 -51.859375 L 54.40625 -51.96875 L 53.828125 -62.875 L 53.828125 -81.203125 L 85.84375 -81.203125 L 85.84375 0 L 59.15625 0 L 38.15625 -29.46875 L 37.234375 -29.34375 L 37.703125 -18.328125 L 37.703125 0 Z M 5.6875 0 "/></g></g></g><g fill="#ffffff" fill-opacity="1"><g transform="translate(687.868028, 123.392877)"><g><path d="M 25.40625 0 L 25.40625 -51.859375 L 3.125 -51.859375 L 3.125 -81.203125 L 80.859375 -81.203125 L 80.859375 -51.859375 L 58.578125 -51.859375 L 58.578125 0 Z M 25.40625 0 "/></g></g></g></g></g><g fill="#6ab1e0" fill-opacity="1"><g transform="translate(363.68163, 584.594153)"><g><path d="M 12.25 0 L 12.25 -175.046875 L 96.53125 -175.046875 C 116.363281 -175.046875 133.570312 -171.457031 148.15625 -164.28125 C 162.75 -157.113281 174.046875 -146.988281 182.046875 -133.90625 C 190.046875 -120.820312 194.046875 -105.359375 194.046875 -87.515625 C 194.046875 -69.679688 190.046875 -54.21875 182.046875 -41.125 C 174.046875 -28.039062 162.75 -17.914062 148.15625 -10.75 C 133.570312 -3.582031 116.363281 0 96.53125 0 Z M 82.265625 -61.515625 L 94.03125 -61.515625 C 103.03125 -61.515625 110.113281 -63.765625 115.28125 -68.265625 C 120.445312 -72.765625 123.03125 -79.179688 123.03125 -87.515625 C 123.03125 -95.859375 120.445312 -102.28125 115.28125 -106.78125 C 110.113281 -111.28125 103.03125 -113.53125 94.03125 -113.53125 L 82.265625 -113.53125 Z M 82.265625 -61.515625 "/></g></g></g><g fill="#6ab1e0" fill-opacity="1"><g transform="translate(554.97531, 584.594153)"><g><path d="M 12.25 0 L 12.25 -175.046875 L 145.53125 -175.046875 L 145.53125 -126.78125 L 80.515625 -126.78125 L 80.515625 -111.03125 L 139.53125 -111.03125 L 139.53125 -65.265625 L 80.515625 -65.265625 L 80.515625 -49.015625 L 147.53125 -49.015625 L 147.53125 0 Z M 12.25 0 "/></g></g></g></svg>